<svg fill="none" height="52" viewBox="0 0 303 52" width="303" xmlns="http://www.w3.org/2000/svg"><path d="m302.742 37.9632h-11.776v-2.2096h9.192v-19.4685h-9.192v-2.2096h11.776zm-301.999812-23.8378h11.801412v2.2096h-9.22395v19.4685h9.22395v2.2096h-11.801412zm62.501912 5.3181c.2844-.2886.5064-.6325.6524-1.0104.146-.378.2128-.7819.1964-1.1867.0269-.3761-.0229-.7536-.1463-1.1099-.1233-.3562-.3178-.6836-.5714-.9625-.8238-.8239-2.4652-1.317-11.3396-1.7414-9.1616-.4619-12.1197-1.2484-13.5988-2.7277-.4424-.4862-.7811-1.05736-.9957-1.67868-.2146-.62133-.3005-1.27984-.2525-1.93543-.0469-.76705.0628-1.53563.3225-2.25891.2596-.72328.6638-1.38611 1.1878-1.94813 1.5789-1.57295 4.8928-2.69025 12.7812-2.69025 6.3033 0 11.3022.97998 14.3539 2.09727v3.08974c-4.6134-1.61322-9.4666-2.43417-14.3539-2.42809-6.7401 0-9.0055.75527-9.9853 1.74149-.2575.27645-.457.60171-.5867.95657s-.187.73212-.1684 1.10949c-.0258.33796.0161.67767.1232.99922.1072.32155.2775.61847.5008.87335.8925.89259 2.9582 1.38566 11.1087 1.77896 9.8855.4931 12.3506 1.2484 13.8297 2.7277.4631.5028.8209 1.0931 1.0524 1.7363s.332 1.3262.2956 2.0088c.0416.7739-.0735 1.5482-.3383 2.2765-.2649.7283-.6741 1.3955-1.2032 1.9618-1.479 1.5105-4.5058 2.9274-13.4427 2.9274-6.5654 0-12.6127-1.0861-16.2262-2.5966v-3.121c3.5448 1.5792 10.4097 2.89 16.2574 2.89 7.3891.0625 9.5922-.8239 10.547-1.7789zm49.8959-15.39251c2.009 2.00365 2.958 4.66894 2.958 8.08321 0 3.4144-.949 6.0484-2.99 8.0521-2.165 2.2034-6.503 4.1072-15.0775 4.1072-8.5749 0-12.8811-1.8726-15.0467-4.076-2.0407-2.0349-2.9893-4.7001-2.9893-8.1145 0-3.41428.9486-6.04836 2.9893-8.08322 2.1968-2.14721 6.503-4.01978 15.0592-4.01978 8.556 0 12.9 1.87257 15.097 4.05099zm-27.3291 1.87257c-1.479 1.47933-2.2342 3.28948-2.2342 6.17944 0 2.89.7864 4.669 2.2654 6.1483 1.6726 1.6728 5.3547 3.1209 12.1884 3.1209 6.8335 0 10.5095-1.4106 12.2505-3.1209 1.417-1.4169 2.234-3.2583 2.234-6.1483 0-2.88996-.817-4.70011-2.265-6.14199-1.741-1.74149-5.355-3.1584-12.2195-3.1584-6.8649 0-10.4784 1.41067-12.2196 3.15216zm87.0221 17.71454h-3.551v-20.51715l-15.24 20.51715h-4.824l-15.215-20.51715v20.51715h-3.508v-23.01391h5.817l15.402 20.87291 15.434-20.87291h5.685zm47.53-19.58711c2.01 2.00365 2.958 4.66894 2.958 8.08321 0 3.4144-.948 6.0484-2.989 8.0521-2.166 2.2034-6.503 4.1072-15.078 4.1072s-12.881-1.8726-15.046-4.076c-2.041-2.0349-2.99-4.7001-2.99-8.1145 0-3.41428.949-6.04836 2.99-8.08322 2.203-2.14721 6.502-4.01978 15.046-4.01978s12.912 1.87257 15.109 4.05099zm-27.328 1.87257c-1.479 1.47933-2.235 3.28948-2.235 6.17944 0 2.89.787 4.669 2.266 6.1483 1.672 1.6728 5.354 3.1209 12.188 3.1209s10.516-1.4106 12.251-3.1209c1.417-1.3982 2.234-3.2271 2.234-6.1171 0-2.88995-.817-4.7001-2.265-6.14198-1.741-1.74149-5.355-3.1584-12.22-3.1584s-10.478 1.37946-12.219 3.12095zm69.641 13.51994c.285-.2883.508-.632.655-1.0099s.215-.782.2-1.1872c.027-.3771-.024-.7556-.15-1.112-.125-.3565-.323-.6834-.58-.9604-.818-.8239-2.465-1.317-11.333-1.7414-9.168-.4619-12.12-1.2484-13.599-2.7277-.449-.483-.794-1.05293-1.014-1.67453s-.311-1.28171-.266-1.93958c-.048-.76773.061-1.53728.322-2.26096.261-.72367.668-1.38605 1.195-1.94608 1.573-1.57295 4.893-2.69025 12.775-2.69025 6.309 0 11.302.97998 14.354 2.09727v3.08974c-4.614-1.61252-9.467-2.43345-14.354-2.42809-6.734 0-8.999.75527-9.985 1.74149-.258.27645-.457.60171-.587.95657s-.187.73212-.169 1.10949c-.021.3401.026.68108.138 1.00273.113.32166.289.61744.518.86984.886.89259 2.958 1.38566 11.102 1.77896 9.892.4931 12.357 1.2484 13.836 2.7277.462.5036.819 1.094 1.05 1.737.232.643.333 1.3256.298 2.0081.04.7743-.076 1.5487-.342 2.277s-.676 1.3953-1.206 1.9613c-1.479 1.5105-4.499 2.9274-13.436 2.9274-6.572 0-12.613-1.0861-16.264-2.5966v-3.121c3.551 1.5792 10.416 2.89 16.264 2.89 7.426.0625 9.623-.8239 10.578-1.7789zm-211.7451 25.779v1.4482h-12.7999v3.614h13.0059v1.4731h-14.7409v-11.4976h14.7658v1.4794h-13.0308v3.4829zm23.7589-4.9935v.0375l-7.2269 5.6177 7.3579 5.78h-2.4963l-6.2408-4.9561-6.2409 4.9561h-2.49l7.3517-5.7301-7.2269-5.6364v-.0375h2.5275l6.1098 4.8812 6.1098-4.8812zm16.2885 0c3.3202 0 4.4685.4619 5.2735 1.2484.5683.708.878 1.5888.878 2.4968 0 .9079-.3097 1.7887-.878 2.4967-.7925.7927-1.9721 1.2858-5.2735 1.2858h-7.489v3.9699h-1.7786v-11.4664zm.0687 6.0609c2.3465 0 3.2515-.2622 3.707-.7365.2032-.2029.3598-.4476.459-.717.0991-.2695.1384-.5573.1152-.8435.0212-.286-.0191-.5733-.1182-.8424-.099-.2692-.2545-.514-.456-.7181-.4555-.4619-1.3605-.7365-3.707-.7365h-7.5701v4.594zm27.591-1.0674v1.4482h-12.769v3.614h13.006v1.4731h-14.76v-11.4976h14.76v1.4794h-13.006v3.4829zm17.224-4.9935c3.321 0 4.369.4307 5.174 1.2484.302.3284.535.7142.686 1.1346.15.4203.214.8666.188 1.3122.026.4511-.04.9028-.196 1.327s-.397.8118-.709 1.1386c-.693.6928-1.723 1.2483-4.419 1.2983l6.715 4.026v.0437h-2.727l-6.684-4.0697h-5.698v4.0697h-1.772v-11.4976zm-7.67 5.9985h7.689c2.297 0 3.233-.3121 3.745-.8052.185-.1965.328-.4296.418-.6843.09-.2548.126-.5256.106-.7951.019-.2766-.021-.5542-.117-.8145-.096-.2602-.245-.4974-.439-.696-.493-.4931-1.348-.7241-3.694-.7241h-7.701zm21.875 5.4991v-11.4664h1.772v11.4976zm24.763-6.5353v1.4481h-12.769v3.6141h13.006v1.4731h-14.766v-11.4664h14.766v1.4794h-13.006v3.4829zm22.349 4.9935v-9.987h1.772v11.4976h-2.496l-12.089-10.0495v10.0495h-1.76v-11.4352h2.596zm10.653-.2309c-.966-1.0983-1.498-2.5106-1.498-3.973 0-1.4623.532-2.8747 1.498-3.9729 1.079-1.0861 3.232-2.0411 7.32-2.0411 2.465-.0605 4.912.4277 7.165 1.4293v1.6916c-2.216-1.1151-4.666-1.6824-7.146-1.6541-2.646 0-4.893.4557-5.979 1.5417-.69.8459-1.067 1.9043-1.067 2.9962s.377 2.1502 1.067 2.9961c1.086 1.0861 3.333 1.5604 5.96 1.5604 2.477.0295 4.928-.5085 7.165-1.5729v1.6104c-2.253 1.0017-4.7 1.4899-7.165 1.4294-4.081.0312-6.234-.9238-7.314-2.0099zm36.615-4.7626v1.4481h-12.769v3.6141h13.024v1.4731h-14.784v-11.4664h14.784v1.4794h-13.024v3.4829zm20.426 4.4505c.143-.1438.255-.3155.329-.5045s.109-.3912.101-.5941c.012-.1881-.013-.3767-.076-.5547-.062-.178-.159-.3417-.286-.4814-.411-.412-1.248-.6242-5.666-.8677-4.581-.2309-6.06-.6241-6.803-1.3669-.22-.2429-.389-.528-.496-.8381-.108-.31-.151-.6386-.128-.9658-.023-.3836.032-.7678.162-1.1294.129-.3616.331-.6931.593-.9742.787-.7864 2.447-1.3482 6.385-1.3482 2.434-.0535 4.86.3031 7.177 1.0549v1.5417c-2.307-.807-4.733-1.2185-7.177-1.2172-3.364 0-4.5.3808-4.993.8739-.131.1376-.232.3005-.297.4787-.066.1782-.094.3679-.084.5575-.011.1704.012.3414.069.5024.057.1611.146.3087.262.4339.443.4431 1.473.6866 5.548.8863 4.943.2434 6.172.6242 6.915 1.3607.231.2521.409.5474.525.8688.115.3214.166.6626.149 1.0038.02.3866-.038.7733-.171 1.1369s-.338.6966-.603.9791c-.736.7553-2.247 1.4606-6.715 1.4606-2.76.0574-5.508-.3824-8.113-1.2983v-1.5417c2.597.9614 5.344 1.4518 8.113 1.4481 3.713.0499 4.812-.3933 5.286-.8739z" fill="#00c7cd"/></svg>